<?xml version="1.0" encoding="UTF-8" standalone="no"?>
<!DOCTYPE svg PUBLIC "-//W3C//DTD SVG 1.1//EN" "http://www.w3.org/Graphics/SVG/1.1/DTD/svg11.dtd">
<svg width="100%" height="100%" viewBox="0 0 256 256" version="1.1" xmlns="http://www.w3.org/2000/svg" xmlns:xlink="http://www.w3.org/1999/xlink" xml:space="preserve" xmlns:serif="http://www.serif.com/" style="fill-rule:evenodd;clip-rule:evenodd;stroke-linejoin:round;stroke-miterlimit:2;">
    <path d="M148.588,225.567C151.182,232.484 150.219,240.234 146.011,246.306C141.803,252.377 134.885,256 127.498,256C99.656,256 64,256 64,256C28.677,256 0,227.323 0,192C-0,192 0,64 0,64C0,36.609 17.244,13.215 41.459,4.089C47.053,1.986 53.254,2.193 58.695,4.664C64.137,7.135 68.374,11.667 70.472,17.263C86.517,60.046 128.284,171.425 148.588,225.567ZM233.531,59.918C235.5,54.665 240.945,51.573 246.466,52.573C251.986,53.573 256,58.379 256,63.989C256,63.993 256,63.996 256,64C256,64 256,192 256,192C256,227.323 227.323,256 192,256C192,256 192,256 192,256C184.727,256 177.916,252.433 173.773,246.455C169.63,240.477 168.682,232.848 171.236,226.037C187.401,182.93 217.08,103.786 233.531,59.918Z"/>
    <path d="M233.531,59.918C235.5,54.665 240.945,51.573 246.466,52.573C251.986,53.573 256,58.379 256,63.989L256,64L256,192C256,227.323 227.323,256 192,256C184.727,256 177.916,252.433 173.773,246.455C169.63,240.477 168.682,232.848 171.236,226.037L233.531,59.918ZM251.834,63.99C251.833,60.394 249.261,57.314 245.723,56.673C242.185,56.032 238.694,58.014 237.432,61.381L175.137,227.5C173.063,233.031 173.833,239.227 177.198,244.082C180.562,248.937 186.093,251.833 192,251.833C225.023,251.833 251.833,225.023 251.833,192L251.833,64L251.834,63.99ZM148.588,225.567C151.182,232.484 150.219,240.234 146.011,246.306C141.803,252.377 134.885,256 127.498,256L64,256C28.677,256 0,227.323 -0,192L0,64C0,36.609 17.244,13.215 41.459,4.089C47.053,1.986 53.254,2.193 58.695,4.664C64.137,7.135 68.374,11.667 70.472,17.263C86.517,60.046 128.284,171.425 148.588,225.567ZM144.686,227.03C124.383,172.888 82.616,61.509 66.571,18.726C64.86,14.165 61.408,10.471 56.973,8.458C52.538,6.444 47.485,6.275 42.926,7.989C20.288,16.521 4.167,38.393 4.167,64L4.167,192C4.167,225.023 30.977,251.833 64,251.833L127.498,251.833C133.519,251.833 139.157,248.881 142.586,243.932C146.016,238.984 146.8,232.668 144.686,227.03Z" style="fill:white;"/>
    <g transform="matrix(1,0,0,1,3.999753,-8)">
        <ellipse cx="160" cy="64" rx="32" ry="32"/>
        <path d="M160,32C177.661,32 192,46.339 192,64C192,81.661 177.661,96 160,96C142.339,96 128,81.661 128,64C128,46.339 142.339,32 160,32ZM160,36.167C144.639,36.167 132.167,48.638 132.167,64C132.167,79.362 144.639,91.833 160,91.833C175.362,91.833 187.833,79.362 187.833,64C187.833,48.638 175.362,36.167 160,36.167Z" style="fill:white;"/>
    </g>
</svg>
