<?xml version="1.0" encoding="UTF-8" standalone="no"?>
<!DOCTYPE svg PUBLIC "-//W3C//DTD SVG 1.1//EN" "http://www.w3.org/Graphics/SVG/1.1/DTD/svg11.dtd">
<svg width="100%" height="100%" viewBox="0 0 256 256" version="1.1" xmlns="http://www.w3.org/2000/svg" xmlns:xlink="http://www.w3.org/1999/xlink" xml:space="preserve" xmlns:serif="http://www.serif.com/" style="fill-rule:evenodd;clip-rule:evenodd;stroke-linejoin:round;stroke-miterlimit:2;">
    <path d="M148.588,225.567C151.182,232.484 150.219,240.234 146.011,246.306C141.803,252.377 134.885,256 127.498,256C99.656,256 64,256 64,256C28.677,256 0,227.323 0,192C-0,192 0,64 0,64C0,36.609 17.244,13.215 41.459,4.089C47.053,1.986 53.254,2.193 58.695,4.664C64.137,7.135 68.374,11.667 70.472,17.263C86.517,60.046 128.284,171.425 148.588,225.567ZM233.531,59.918C235.5,54.665 240.945,51.573 246.466,52.573C251.986,53.573 256,58.379 256,63.989C256,63.993 256,63.996 256,64C256,64 256,192 256,192C256,227.323 227.323,256 192,256C192,256 192,256 192,256C184.727,256 177.916,252.433 173.773,246.455C169.63,240.477 168.682,232.848 171.236,226.037C187.401,182.93 217.08,103.786 233.531,59.918Z"/>
    <path d="M148.588,225.567C151.182,232.484 150.219,240.234 146.011,246.306C141.803,252.377 134.885,256 127.498,256L64,256C28.677,256 0,227.323 -0,192L0,64C0,36.609 17.244,13.215 41.459,4.089C47.053,1.986 53.254,2.193 58.695,4.664C64.137,7.135 68.374,11.667 70.472,17.263C86.517,60.046 128.284,171.425 148.588,225.567ZM136.884,229.956C116.58,175.814 74.813,64.435 58.768,21.652C57.834,19.162 55.949,17.145 53.527,16.045C51.107,14.946 48.349,14.854 45.86,15.788C26.376,23.134 12.5,41.959 12.5,64L12.5,192C12.5,220.424 35.576,243.5 64,243.5L127.498,243.5C130.786,243.5 133.864,241.888 135.737,239.186C137.609,236.483 138.038,233.035 136.884,229.956ZM233.531,59.918C235.5,54.665 240.945,51.573 246.466,52.573C251.986,53.573 256,58.379 256,63.989L256,64L256,192C256,227.323 227.323,256 192,256C184.727,256 177.916,252.433 173.773,246.455C169.63,240.477 168.682,232.848 171.236,226.037L233.531,59.918ZM243.5,68.933L182.94,230.427C181.826,233.398 182.239,236.727 184.047,239.335C185.855,241.944 188.826,243.5 192,243.5C220.423,243.5 243.5,220.424 243.5,192L243.5,68.933Z" style="fill:white;"/>
    <g transform="matrix(1.62501,0,0,1.625,-96.001696,-32)">
        <ellipse cx="160" cy="64" rx="32" ry="32"/>
        <path d="M160,32C177.661,32 192,46.339 192,64C192,81.661 177.661,96 160,96C142.339,96 128,81.661 128,64C128,46.339 142.339,32 160,32ZM160,39.692C146.584,39.692 135.693,50.584 135.693,64C135.693,77.416 146.584,88.308 160,88.308C173.416,88.308 184.308,77.416 184.308,64C184.308,50.584 173.416,39.692 160,39.692Z" style="fill:white;"/>
    </g>
</svg>
